<?xml version="1.0" standalone="no"?>
<!DOCTYPE svg PUBLIC "-//W3C//DTD SVG 1.1//EN" "http://www.w3.org/Graphics/SVG/1.1/DTD/svg11.dtd" >
<svg xmlns="http://www.w3.org/2000/svg">
<metadata></metadata>
<defs>
<font id="origami_mommyregular" horiz-adv-x="1722" >
<font-face units-per-em="2048" ascent="1638" descent="-410" />
<missing-glyph horiz-adv-x="737" />
<glyph horiz-adv-x="2048" />
<glyph horiz-adv-x="2048" />
<glyph unicode="&#xd;" horiz-adv-x="737" />
<glyph unicode=" "  horiz-adv-x="737" />
<glyph unicode="&#x09;" horiz-adv-x="737" />
<glyph unicode="&#xa0;" horiz-adv-x="737" />
<glyph unicode="!" horiz-adv-x="1079" d="M115 430v1047h839v-1047h-839zM119 0v215h831v-215h-831zM303 618h461v670h-461v-670z" />
<glyph unicode="&#x22;" d="M119 645v832h618v-832h-618zM307 834h242v454h-242v-454zM975 645v832h618v-832h-618zM1163 834h242v454h-242v-454z" />
<glyph unicode="%" d="M119 0v621h401v-189h-213v-242h242v213h188v-403h-618zM119 858v619h618v-430h213v-189h-213v-213h-188v213h-430zM307 1047h242v241h-242v-241zM762 432v189h213v213h188v-213h430v-621h-618v432h-213zM975 1075v402h618v-619h-401v189h213v241h-242v-213h-188z M1163 190h242v242h-242v-242z" />
<glyph unicode="&#x26;" d="M119 0v1477h1263v-430h211v-615h-211v-432h-1263zM307 190h885v431h213v237h-643v189h430v241h-885v-454h213v-189h-213v-455zM762 432v189h188v-189h-188z" />
<glyph unicode="'" horiz-adv-x="1079" d="M115 645v832h839v-832h-839zM303 834h461v454h-461v-454z" />
<glyph unicode="(" horiz-adv-x="1533" d="M115 0v1477h1269v-619h-432v-237h432v-621h-1269zM303 190h891v242h-430v615h430v241h-891v-1098z" />
<glyph unicode=")" horiz-adv-x="1533" d="M117 0v621h432v237h-432v619h1269v-1477h-1269zM307 190h891v1098h-891v-241h430v-615h-430v-242z" />
<glyph unicode="+" d="M119 432v615h430v430h614v-430h430v-615h-430v-432h-614v432h-430zM307 621h430v-431h238v431h430v237h-430v430h-238v-430h-430v-237z" />
<glyph unicode="," horiz-adv-x="1079" d="M115 -25h219v457h-219v189h839v-621h-432v-215h-407v190zM522 190h242v242h-242v-242z" />
<glyph unicode="-" d="M119 432v615h1474v-615h-1474zM307 621h1098v237h-1098v-237z" />
<glyph unicode="." horiz-adv-x="1079" d="M115 0v834h839v-834h-839zM303 190h461v455h-461v-455z" />
<glyph unicode="/" d="M119 0v621h211v213h219v213h213v219h213v211h618v-619h-211v-213h-219v-213h-213v-217h-213v-215h-618zM307 190h242v213h213v218h213v213h217v213h213v241h-242v-213h-213v-217h-213v-213h-217v-213h-213v-242z" />
<glyph unicode="0" d="M119 0v1477h1474v-1477h-1474zM307 190h1098v1098h-1098v-1098zM762 432v615h188v-615h-188z" />
<glyph unicode="1" d="M119 0v621h211v237h-211v619h1044v-430h430v-1047h-1474zM307 190h1098v668h-242v-426h-188v856h-668v-241h213v-615h-213v-242z" />
<glyph unicode="2" d="M119 0v1477h1474v-1477h-1474zM307 190h1098v242h-643v189h643v667h-1098v-241h643v-189h-643v-668z" />
<glyph unicode="3" d="M119 0v1477h1474v-1477h-1474zM307 190h1098v1098h-1098v-241h643v-189h-643v-237h643v-189h-643v-242z" />
<glyph unicode="4" d="M119 432v1045h1474v-1477h-831v432h-643zM307 621h643v-431h455v1098h-455v-430h-188v430h-455v-667z" />
<glyph unicode="5" d="M119 0v1477h1474v-1477h-1474zM307 190h1098v668h-643v189h643v241h-1098v-667h643v-189h-643v-242z" />
<glyph unicode="6" d="M119 0v1477h1474v-1477h-1474zM307 190h1098v668h-643v189h643v241h-1098v-1098zM762 432v189h188v-189h-188z" />
<glyph unicode="7" d="M119 432v1045h1474v-1477h-831v432h-643zM307 621h455v426h188v-857h455v1098h-1098v-667z" />
<glyph unicode="8" d="M119 0v1477h1474v-1477h-1474zM307 190h1098v455h-213v189h213v454h-1098v-454h213v-189h-213v-455zM762 432v189h188v-189h-188zM762 858v189h188v-189h-188z" />
<glyph unicode="9" d="M117 0v1477h1474v-1477h-1474zM305 188h1098v1098h-1098v-668h643v-188h-643v-242zM760 856v188h188v-188h-188z" />
<glyph unicode=":" horiz-adv-x="1079" d="M115 0v618h839v-618h-839zM115 858v619h839v-619h-839zM303 188h461v242h-461v-242zM303 1047h461v241h-461v-241z" />
<glyph unicode=";" horiz-adv-x="1079" d="M115 -25h219v457h-219v189h839v-621h-432v-215h-407v190zM115 858v619h839v-619h-839zM303 1047h461v241h-461v-241zM522 190h242v242h-242v-242z" />
<glyph unicode="&#x3c;" d="M119 432v615h211v219h432v211h831v-619h-430v-237h430v-621h-831v215h-432v217h-211zM307 621h213v-218h430v-213h455v242h-430v213h-213v189h213v213h430v241h-455v-213h-430v-217h-213v-237z" />
<glyph unicode="=" d="M119 0v618h1474v-618h-1474zM119 858v619h1474v-619h-1474zM307 188h1098v242h-1098v-242zM307 1047h1098v241h-1098v-241z" />
<glyph unicode="&#x3e;" d="M117 0v621h430v237h-430v619h831v-211h432v-219h211v-615h-211v-217h-432v-215h-831zM305 190h455v213h430v218h213v237h-213v217h-430v213h-455v-241h430v-213h213v-189h-213v-213h-430v-242z" />
<glyph unicode="?" d="M119 858v619h1474v-832h-430v-213h-833v426h-211zM307 1047h430v-189h-217v-237h455v213h430v454h-1098v-241zM330 0v190h833v-190h-833z" />
<glyph unicode="@" d="M119 0v1477h1474v-1045h-1044v615h614v-426h242v667h-1098v-1098h1286v-190h-1474zM737 621h238v237h-238v-237z" />
<glyph unicode="A" d="M117 0v1479h1478v-1479h-1478zM305 188h457v430h188v-430h457v1102h-1102v-1102zM762 860v189h188v-189h-188z" />
<glyph unicode="B" d="M117 0v1479h1478v-1479h-1478zM305 188h1102v457h-215v189h215v456h-1102v-1102zM762 430v188h188v-188h-188zM762 860v189h188v-189h-188z" />
<glyph unicode="C" d="M117 0v1479h1478v-619h-645v-242h645v-618h-1478zM305 188h1102v242h-645v619h645v241h-1102v-1102z" />
<glyph unicode="D" d="M117 0v1479h1263v-215h215v-1049h-215v-215h-1263zM305 188h887v215h215v672h-215v215h-887v-1102zM762 430v619h188v-619h-188z" />
<glyph unicode="E" d="M117 0v1479h1478v-1479h-1478zM305 188h1102v242h-645v188h645v242h-645v189h645v241h-1102v-1102z" />
<glyph unicode="F" d="M117 0v1479h1478v-1049h-645v-430h-833zM305 188h457v430h645v242h-645v189h645v241h-1102v-1102z" />
<glyph unicode="G" d="M117 0v1479h1478v-1479h-1478zM305 188h1102v672h-457v-430h-188v619h645v241h-1102v-1102z" />
<glyph unicode="H" d="M119 0v1477h1474v-1477h-1474zM307 190h455v431h188v-431h455v1098h-455v-430h-188v430h-455v-1098z" />
<glyph unicode="I" d="M119 0v621h211v237h-211v619h1474v-619h-211v-237h211v-621h-1474zM307 190h1098v242h-213v615h213v241h-1098v-241h213v-615h-213v-242z" />
<glyph unicode="J" d="M119 0v1477h1474v-1477h-1474zM307 190h1098v1098h-1098v-241h643v-615h-188v426h-455v-668z" />
<glyph unicode="K" d="M119 0v1477h1474v-1477h-1474zM307 190h455v431h188v-431h455v455h-213v189h213v454h-455v-430h-188v430h-455v-1098z" />
<glyph unicode="L" d="M119 0v1477h831v-856h643v-621h-1474zM307 190h1098v242h-643v856h-455v-1098z" />
<glyph unicode="M" d="M119 0v1477h1474v-1477h-1474zM307 190h242v431h188v-431h238v431h188v-431h242v1098h-455v-430h-188v430h-455v-1098z" />
<glyph unicode="N" d="M119 0v1477h1474v-1477h-1474zM307 190h242v644h188v-644h668v1098h-242v-643h-188v643h-668v-1098z" />
<glyph unicode="O" d="M119 0v1477h1474v-1477h-1474zM307 190h1098v1098h-1098v-1098zM762 432v615h188v-615h-188z" />
<glyph unicode="P" d="M119 0v1477h1474v-1045h-643v-432h-831zM307 190h455v431h643v667h-1098v-1098zM762 858v189h188v-189h-188z" />
<glyph unicode="Q" d="M119 0v1477h1474v-1477h-1474zM307 190h1098v242h-213v189h213v667h-1098v-1098zM762 432v615h188v-615h-188z" />
<glyph unicode="R" d="M119 0v1477h1474v-1477h-1474zM307 190h455v431h188v-431h455v455h-213v189h213v454h-1098v-1098zM762 858v189h188v-189h-188z" />
<glyph unicode="S" d="M119 0v1477h1474v-1477h-1474zM307 190h1098v668h-643v189h643v241h-1098v-667h643v-189h-643v-242z" />
<glyph unicode="T" d="M119 858v619h1474v-619h-211v-858h-1052v858h-211zM307 1047h213v-857h672v857h213v241h-1098v-241z" />
<glyph unicode="U" d="M119 0v1477h1474v-1477h-1474zM307 190h1098v1098h-455v-856h-188v856h-455v-1098z" />
<glyph unicode="V" d="M119 0v1477h1474v-1262h-211v-215h-1263zM307 190h885v213h213v885h-455v-856h-188v856h-455v-1098z" />
<glyph unicode="W" d="M119 0v1477h1474v-1477h-1474zM307 190h455v431h188v-431h455v1098h-242v-430h-188v430h-238v-430h-188v430h-242v-1098z" />
<glyph unicode="X" d="M119 0v1477h1474v-1477h-1474zM307 190h455v431h188v-431h455v455h-213v189h213v454h-455v-430h-188v430h-455v-454h213v-189h-213v-455z" />
<glyph unicode="Y" d="M119 432v1045h1474v-1045h-211v-432h-1052v432h-211zM307 621h213v-431h672v431h213v667h-455v-430h-188v430h-455v-667z" />
<glyph unicode="Z" d="M119 0v1477h1474v-1477h-1474zM307 190h1098v242h-643v189h643v667h-1098v-241h643v-189h-643v-668z" />
<glyph unicode="[" horiz-adv-x="1533" d="M115 0v1477h1269v-619h-432v-237h432v-621h-1269zM303 190h891v242h-430v615h430v241h-891v-1098z" />
<glyph unicode="\" d="M121 858v619h618v-211h213v-219h213v-213h219v-213h211v-621h-618v215h-213v217h-213v213h-219v213h-211zM309 1047h213v-213h217v-213h213v-218h213v-213h242v242h-213v213h-217v213h-213v217h-213v213h-242v-241z" />
<glyph unicode="]" horiz-adv-x="1533" d="M117 0v621h432v237h-432v619h1269v-1477h-1269zM307 190h891v1098h-891v-241h430v-615h-430v-242z" />
<glyph unicode="^" d="M119 432v615h211v219h219v211h614v-211h219v-219h211v-615h-618v213h-238v-213h-618zM307 621h242v213h213v213h188v-213h213v-213h242v237h-213v217h-217v213h-238v-213h-217v-217h-213v-237z" />
<glyph unicode="_" d="M119 0v621h1474v-621h-1474zM307 190h1098v242h-1098v-242z" />
<glyph unicode="`" horiz-adv-x="1282" d="M119 858v619h614v-211h219v-219h211v-615h-618v213h-213v213h-213zM307 1047h213v-213h213v-213h242v237h-213v217h-217v213h-238v-241z" />
<glyph unicode="a" d="M119 0v1477h1474v-1477h-1474zM307 190h1098v1098h-1098v-241h643v-189h-643v-668zM762 432v189h188v-189h-188z" />
<glyph unicode="b" d="M119 0v1477h831v-211h643v-1266h-1474zM307 190h1098v885h-643v213h-455v-1098zM762 432v402h188v-402h-188z" />
<glyph unicode="c" d="M119 0v1477h1474v-1477h-1474zM307 190h1098v242h-643v615h188v-426h455v667h-1098v-1098z" />
<glyph unicode="d" d="M119 0v1266h643v211h831v-1477h-1474zM307 190h1098v1098h-455v-213h-643v-885zM762 432v402h188v-402h-188z" />
<glyph unicode="e" d="M119 0v1477h1474v-1477h-1474zM307 190h1098v242h-643v189h643v667h-1098v-1098zM762 858v189h188v-189h-188z" />
<glyph unicode="f" d="M117 0v1479h1478v-1049h-645v-430h-833zM305 188h457v430h645v242h-645v189h645v241h-1102v-1102z" />
<glyph unicode="g" d="M119 0v1477h1474v-1477h-1474zM307 190h1098v1098h-1098v-667h643v-189h-643v-242zM762 858v189h188v-189h-188z" />
<glyph unicode="h" d="M119 0v1477h831v-211h643v-1266h-1474zM307 190h455v644h188v-644h455v885h-643v213h-455v-1098z" />
<glyph unicode="i" d="M119 0v621h211v237h-211v619h1474v-619h-211v-237h211v-621h-1474zM307 190h1098v242h-213v615h213v241h-1098v-241h213v-615h-213v-242z" />
<glyph unicode="j" d="M119 0v1477h1474v-1477h-1474zM307 190h1098v1098h-1098v-241h643v-615h-188v426h-455v-668z" />
<glyph unicode="k" d="M119 0v1477h831v-211h643v-1266h-1474zM307 190h455v431h188v-431h455v455h-213v189h213v241h-455v-217h-188v430h-455v-1098z" />
<glyph unicode="l" d="M119 0v1477h831v-856h643v-621h-1474zM307 190h1098v242h-643v856h-455v-1098z" />
<glyph unicode="m" d="M119 0v1477h1474v-1477h-1474zM307 190h242v431h188v-431h238v431h188v-431h242v1098h-455v-430h-188v430h-455v-1098z" />
<glyph unicode="n" d="M119 0v1477h1474v-1477h-1474zM307 190h455v857h188v-857h455v1098h-1098v-1098z" />
<glyph unicode="o" d="M119 0v1477h1474v-1477h-1474zM307 190h1098v1098h-1098v-1098zM762 432v615h188v-615h-188z" />
<glyph unicode="p" d="M117 0v1481h1478v-1266h-645v-215h-833zM307 186h455v220h643v884h-1098v-1104zM762 647v402h188v-402h-188z" />
<glyph unicode="q" d="M117 215v1266h1478v-1481h-833v215h-645zM307 406h643v-220h455v1104h-1098v-884zM762 647v402h188v-402h-188z" />
<glyph unicode="r" d="M119 0v1477h1474v-1045h-643v-432h-831zM307 190h455v857h188v-426h455v667h-1098v-1098z" />
<glyph unicode="s" d="M119 0v1477h1474v-1477h-1474zM307 190h1098v668h-643v189h643v241h-1098v-667h643v-189h-643v-242z" />
<glyph unicode="t" d="M119 0v1477h831v-211h643v-1266h-1474zM307 190h1098v455h-455v-213h-188v402h643v241h-643v213h-455v-1098z" />
<glyph unicode="u" d="M119 0v1477h1474v-1477h-1474zM307 190h1098v1098h-455v-856h-188v856h-455v-1098z" />
<glyph unicode="v" d="M119 215v1262h1474v-1262h-211v-215h-1052v215h-211zM307 403h213v-213h672v213h213v885h-455v-856h-188v856h-455v-885z" />
<glyph unicode="w" d="M119 0v1477h1474v-1477h-1474zM307 190h455v431h188v-431h455v1098h-242v-430h-188v430h-238v-430h-188v430h-242v-1098z" />
<glyph unicode="x" d="M119 0v1477h1474v-1477h-1474zM307 190h455v431h188v-431h455v455h-213v189h213v454h-455v-430h-188v430h-455v-454h213v-189h-213v-455z" />
<glyph unicode="y" d="M119 0v1477h1474v-1477h-1474zM307 190h1098v1098h-455v-430h-188v430h-455v-667h643v-189h-643v-242z" />
<glyph unicode="z" d="M119 0v1477h1474v-1477h-1474zM307 190h1098v242h-643v189h643v667h-1098v-241h643v-189h-643v-668z" />
<glyph unicode="{" horiz-adv-x="1533" d="M115 0v1477h1269v-619h-432v-237h432v-621h-1269zM303 190h891v242h-430v615h430v241h-891v-1098z" />
<glyph unicode="|" d="M119 0v1477h1474v-1477h-1474zM307 190h1098v1098h-1098v-1098z" />
<glyph unicode="}" horiz-adv-x="1533" d="M117 0v621h432v237h-432v619h1269v-1477h-1269zM307 190h891v1098h-891v-241h430v-615h-430v-242z" />
<glyph unicode="~" d="M119 645v621h211v211h1263v-619h-211v-213h-1263zM307 834h242v213h188v-213h455v213h213v241h-242v-213h-188v213h-455v-213h-213v-241z" />
<glyph unicode="&#xa1;" horiz-adv-x="1079" d="M117 0v1047h839v-1047h-839zM121 1262v215h831v-215h-831zM307 188h461v670h-461v-670z" />
<glyph unicode="&#xa9;" d="M119 0v1477h1474v-1477h-1474zM307 190h1098v1098h-1098v-1098zM549 432v615h614v-189h-426v-237h426v-189h-614z" />
<glyph unicode="&#xad;" d="M119 432v615h1474v-615h-1474zM307 621h1098v237h-1098v-237z" />
<glyph unicode="&#xae;" d="M119 0v1477h1474v-1477h-1474zM307 190h1098v1098h-1098v-1098zM549 432v615h614v-189h-213v-213h-213v-213h-188zM975 432v189h188v-189h-188z" />
<glyph unicode="&#xbf;" d="M117 0v831h430v213h833v-426h211v-618h-1474zM305 188h1098v242h-430v188h217v238h-455v-213h-430v-455zM547 1286v191h833v-191h-833z" />
<glyph unicode="&#x2000;" horiz-adv-x="740" />
<glyph unicode="&#x2001;" horiz-adv-x="1481" />
<glyph unicode="&#x2002;" horiz-adv-x="740" />
<glyph unicode="&#x2003;" horiz-adv-x="1481" />
<glyph unicode="&#x2004;" horiz-adv-x="493" />
<glyph unicode="&#x2005;" horiz-adv-x="370" />
<glyph unicode="&#x2006;" horiz-adv-x="246" />
<glyph unicode="&#x2007;" horiz-adv-x="246" />
<glyph unicode="&#x2008;" horiz-adv-x="185" />
<glyph unicode="&#x2009;" horiz-adv-x="296" />
<glyph unicode="&#x200a;" horiz-adv-x="82" />
<glyph unicode="&#x2010;" d="M119 432v615h1474v-615h-1474zM307 621h1098v237h-1098v-237z" />
<glyph unicode="&#x2011;" d="M119 432v615h1474v-615h-1474zM307 621h1098v237h-1098v-237z" />
<glyph unicode="&#x2012;" d="M119 432v615h1474v-615h-1474zM307 621h1098v237h-1098v-237z" />
<glyph unicode="&#x2013;" d="M119 432v615h1474v-615h-1474zM307 621h1098v237h-1098v-237z" />
<glyph unicode="&#x2014;" d="M119 432v615h1474v-615h-1474zM307 621h1098v237h-1098v-237z" />
<glyph unicode="&#x2018;" horiz-adv-x="1079" d="M117 645v621h432v215h407v-191h-219v-456h219v-189h-839zM307 834h242v241h-242v-241z" />
<glyph unicode="&#x2019;" horiz-adv-x="1079" d="M117 643v191h219v456h-219v189h839v-621h-432v-215h-407zM524 1049h242v241h-242v-241z" />
<glyph unicode="&#x201c;" d="M119 645v832h618v-832h-618zM307 834h242v454h-242v-454zM975 645v832h618v-832h-618zM1163 834h242v454h-242v-454z" />
<glyph unicode="&#x201d;" d="M119 645v832h618v-832h-618zM307 834h242v454h-242v-454zM975 645v832h618v-832h-618zM1163 834h242v454h-242v-454z" />
<glyph unicode="&#x2026;" horiz-adv-x="3229" d="M115 0v836h833v-836h-833zM305 184h459v459h-459v-459zM1190 0v836h833v-836h-833zM1380 184h459v459h-459v-459zM2265 0v836h834v-836h-834zM2456 184h458v459h-458v-459z" />
<glyph unicode="&#x202f;" horiz-adv-x="296" />
<glyph unicode="&#x205f;" horiz-adv-x="370" />
<glyph unicode="&#xe000;" horiz-adv-x="1474" d="M0 0v1475h1475v-1475h-1475z" />
</font>
</defs>
</svg>
